<?xml version="1.0" encoding="UTF-8"?>
<svg id="Layer_1" xmlns="http://www.w3.org/2000/svg" version="1.1" viewBox="0 0 20 20">
  <!-- Generator: Adobe Illustrator 29.3.1, SVG Export Plug-In . SVG Version: 2.1.0 Build 151)  -->
  <defs>
    <style>
      .st0 {
        fill: none;
      }

      .st1 {
        isolation: isolate;
      }

      .st2 {
        fill: #ee5267;
      }
    </style>
  </defs>
  <rect class="st0" width="20" height="20"/>
  <g class="st1">
    <path class="st2" d="M-5.4,10.8h-3.6c-3.1,0-5.6,2.5-5.6,5.6v3.6c4.9-.4,8.9-4.3,9.2-9.2Z"/>
    <path class="st2" d="M-16.2,20v-3.6c0-3.1-2.5-5.6-5.7-5.6h-3.6c.4,4.9,4.3,8.9,9.2,9.2Z"/>
    <path class="st2" d="M-5.4,9.2C-5.8,4.3-9.7.4-14.7,0v3.6c0,3.1,2.5,5.7,5.6,5.7h3.6Z"/>
    <path class="st2" d="M-16.2,0c-4.9.4-8.9,4.3-9.2,9.2h3.6c3.1,0,5.7-2.5,5.7-5.7V0Z"/>
  </g>
  <g>
    <path class="st2" d="M12.7,9.1c.4,0,.8-.2,1.2-.1s.9.4,1.1.6c.7.6,0,.7-.3,1.2s-.5.7-.4.8c.4,0,.8-.2,1.2-.2s1.7.6,1.7,1.1-.4.8-.5,1.1c-.3,1.3-.3,2.8-1.1,4.1s-1,1.2-1.5.9l-1.6-2.1c0-.1,0-.1.2,0,.6.1,1.4.7,1.8,0s.8-2.5.8-3.3,0-.6-.5-.7c-2.3-.3-5.2.6-7.5.8s-.8,0-1.2-.1c-.3.6-.5,1.3-.8,1.9-.6,1.1-1.5,2.1-2.7,2.6,0-.1.6-.8.7-.9,1.5-2.1,2.4-4.9,2.5-7.5s0-1.1-.3-1.7c0-.3.3-.3.5-.2.4,0,.8.2,1.2.1,1.2,0,3.1-.4,4.4-.6s.5-.2.8-.2,1.3.7,1.3,1-.5.5-.6.7-.4.6-.5.9ZM12.1,7.4c-.2-.2-1.8,0-2.2,0s-2.5.4-2.7.5l-.3,1.7,4.7-.5c.1-.3.6-1.6.4-1.9ZM13.4,10c0-.1-1,0-1.2,0-.7,0-1.6.1-2.3.2s-1.8.4-2.5.4-.3,0-.4,0c-.2,0-.4,1.6-.5,1.9,0,.1.1.1.2.1.5,0,1.2,0,1.7-.1,1.5-.1,3.1-.4,4.6-.6,0,0,.5-1.6.4-1.8Z"/>
    <path class="st2" d="M12.6,2c.2.2.3.4,0,.6-1.8.5-3.9,1.4-5.8,1.5s-1.2,0-1.3-.1.1-.1.2-.1c1.7-.5,3.1-.8,4.7-1.7s.8-.7,1-.7c.3,0,.9.3,1.2.6Z"/>
    <path class="st2" d="M13.8,4.7c-.5.4-1.4,1.2-2,1.4s-.2.2-.3,0c.7-.9,1.3-2,1.7-3,.1,0,.7.3.8.4.7.6.4.7-.2,1.2Z"/>
    <path class="st2" d="M6.8,14.4c.5,0,.5,1,.5,1.4s-.6,1.3-.9,1.4-.6,0-.7-.3c-.3-1,1-1.6,1.1-2.5Z"/>
    <path class="st2" d="M12.2,13.2c.7,0,1.9.5,2.2,1.2s.2,1.4-.6,1.1-1.8-2.1-1.6-2.2Z"/>
    <path class="st2" d="M7,6.6c-.2-.1-1.1-1.5-1.1-1.7,0-.5,1,0,1.2,0,.8.4,1.1,1.1.5,1.7-.2,0-.4,0-.6-.1Z"/>
    <path class="st2" d="M10.4,4.8c.5.6,0,2.2-.8,1.1s-.8-1.4-.8-1.6c.1-.4,1.4.3,1.6.5Z"/>
    <path class="st2" d="M10.2,13.8c1,0,2.1.8,1.6,1.9-.3.2-.5,0-.7-.1s-1.1-1.6-.9-1.7Z"/>
    <path class="st2" d="M9.4,14.8c.5.5.5,1.9-.2,1.5s-1-1.6-1-1.9c0-.5,1.1.2,1.2.4Z"/>
  </g>
</svg>