<?xml version="1.0" encoding="UTF-8"?>
<svg id="Layer_1" xmlns="http://www.w3.org/2000/svg" version="1.1" viewBox="0 0 16 16">
  <!-- Generator: Adobe Illustrator 29.3.1, SVG Export Plug-In . SVG Version: 2.1.0 Build 151)  -->
  <defs>
    <style>
      .st0 {
        fill: #fff;
      }
    </style>
  </defs>
  <path class="st0" d="M0,16l1.1-4.1C-1.2,7.8.5,2.6,4.8.7s10.3.9,11,6-5.9,11.3-11.7,8.2L0,16ZM1.9,14.1l2.5-.6c3.5,2.2,8.3.7,9.8-3.1S11.4,0,6.1,1.6C1.9,2.9,0,8,2.6,11.7l-.7,2.4Z"/>
  <path class="st0" d="M5.1,4.3c.1,0,.5,0,.7,0s.2.2.3.3c.2.3.6,1.2.6,1.5.1.5-.6.9-.6,1.2s.6.9.7,1.1c.4.5,1,.9,1.5,1.2s.7.4.9.2.4-.6.6-.8.4-.1.7,0,1.1.5,1.4.7.1.5,0,.7c-.3,1.2-1.6,1.4-2.7,1.2-1.9-.5-3.4-1.8-4.5-3.4s-1.1-2-.6-3.1.6-.8.9-.9Z"/>
</svg>